<?xml version="1.0" encoding="UTF-8"?>
<svg id="_图层_2" data-name="图层 2" xmlns="http://www.w3.org/2000/svg" width="12.95" height="12.94" viewBox="0 0 12.95 12.94">
  <defs>
    <style>
      .cls-1 {
        fill: #fff;
      }
    </style>
  </defs>
  <g id="_图层_2-2" data-name=" 图层 2">
    <g id="_图层_2-2" data-name=" 图层 2-2">
      <path class="cls-1" d="M9.38,6.47l2.97-2.97c.8-.8.8-2.1,0-2.9-.8-.8-2.1-.8-2.9,0l-2.97,2.97L3.5.6C2.7-.2,1.4-.2.6.6-.2,1.4-.2,2.7.6,3.5l2.97,2.97-2.97,2.97c-.8.8-.8,2.1,0,2.9.8.8,2.1.8,2.9,0l2.97-2.97,2.97,2.97c.8.8,2.1.8,2.9,0s.8-2.1,0-2.9l-2.97-2.97h.01Z"/>
    </g>
  </g>
</svg>